<mxfile host="app.diagrams.net" modified="2023-12-09T13:04:45.431Z" agent="Mozilla/5.0 (Linux; Android 10; K) AppleWebKit/537.36 (KHTML, like Gecko) Chrome/119.0.0.0 Mobile Safari/537.36" version="22.1.7" etag="OLimLZqCpX35wuHmq_f-" type="github">
  <diagram name="Page-1" id="S9EaPg8tR2iKhw5eGjgT">
    <mxGraphModel>
      <root>
        <mxCell id="0" />
        <mxCell id="1" parent="0" />
      </root>
    </mxGraphModel>
  </diagram>
</mxfile>
